<svg xmlns="http://www.w3.org/2000/svg" width="16" height="16"><path d="M1.982 2.023a.495.495 0 0 0-.347.153l-.239.248C.466 3.396 0 4.698 0 6s.466 2.604 1.396 3.576l.239.248a.497.497 0 1 0 .717-.688l-.237-.247c-1.468-1.535-1.468-4.24 0-5.776l.237-.25a.497.497 0 0 0-.37-.84Zm12.038 0a.497.497 0 0 0-.37.84l.237.25c1.468 1.535 1.468 4.24 0 5.776l-.237.248a.497.497 0 1 0 .717.687l.238-.248C15.536 8.604 16 7.302 16 6s-.464-2.603-1.395-3.576l-.238-.248a.495.495 0 0 0-.347-.153ZM3.479 3.516a.497.497 0 0 0-.311.129l-.273.248c-.614.558-.907 1.345-.9 2.125.005.78.31 1.553.9 2.09l.273.25a.497.497 0 1 0 .67-.736l-.274-.249c-.697-.635-.744-2.068 0-2.746l.274-.248a.495.495 0 0 0-.36-.863Zm8.996 0a.495.495 0 0 0-.31.863l.27.248c.745.678.698 2.11 0 2.746l-.27.248a.497.497 0 1 0 .669.736l.271-.25c.59-.536.897-1.31.903-2.09.006-.78-.29-1.566-.903-2.124l-.271-.248a.498.498 0 0 0-.36-.13ZM4.773 5a.75.75 0 0 0-.585 1.219l2.835 3.545V16h2V9.764l2.836-3.545A.75.75 0 0 0 11.273 5Zm1.561 1.5h3.379l-1.69 2.111Z" style="fill:#2e3436;fill-opacity:1"/></svg>