<svg xmlns="http://www.w3.org/2000/svg" width="16" height="16"><path d="M15 10a1 1 0 0 1 .707 1.707L14.414 13l1.293 1.293a1 1 0 0 1-1.414 1.414L13 14.414l-1.293 1.293a1 1 0 0 1-1.414-1.414L11.586 13l-1.293-1.293a1 1 0 0 1 1.414-1.414L13 11.586l1.293-1.293A1 1 0 0 1 15 10z" style="fill:#2e3436;fill-opacity:1"/><path d="M6 0c-.554 0-1 .446-1 1v3c0 .554.446 1 1 1h1v2H0v2h2v2H1c-.554 0-1 .446-1 1v3c0 .554.446 1 1 1h4c.554 0 1-.446 1-1v-3c0-.554-.446-1-1-1H4V9h12V7H9V5h1c.554 0 1-.446 1-1V1c0-.554-.446-1-1-1z" style="font-variation-settings:normal;vector-effect:none;fill:#2e3436;fill-opacity:.35;stroke-width:0;stroke-linecap:butt;stroke-linejoin:miter;stroke-miterlimit:4;stroke-dasharray:none;stroke-dashoffset:0;stroke-opacity:1;-inkscape-stroke:none;stop-color:#000"/></svg>