<svg xmlns="http://www.w3.org/2000/svg" width="16" height="16"><path d="M8 1.992c-2.618 0-5.237.935-7.193 2.807l-.498.48A1 1 0 1 0 1.69 6.721l.5-.477c3.088-2.954 8.53-2.954 11.618 0l.5.477a1 1 0 1 0 1.383-1.442l-.499-.48C13.237 2.927 10.618 1.992 8 1.992ZM7.967 6c-1.569.012-3.126.629-4.205 1.814l-.502.547A1 1 0 1 0 4.74 9.71l.498-.547c1.278-1.403 4.16-1.497 5.524 0l.498.547a1 1 0 1 0 1.478-1.346l-.5-.549C11.115 6.581 9.535 5.988 7.967 6ZM8 10a2 2 0 1 0 0 4 2 2 0 0 0 0-4Z" style="fill:#2e3436;fill-opacity:.35"/></svg>