<svg xmlns="http://www.w3.org/2000/svg" width="16" height="16"><path d="M8 1.992c-2.618 0-5.237.935-7.193 2.807l-.498.48A1 1 0 1 0 1.69 6.721l.5-.477c3.088-2.954 8.53-2.954 11.618 0l.5.477a1 1 0 1 0 1.382-1.442l-.498-.48C13.237 2.927 10.618 1.992 8 1.992zM7.967 6c-1.569.012-3.126.629-4.205 1.814l-.502.547a1 1 0 0 0 .787 1.676 1.006 1.006 0 0 0 .543-.191 1.02 1.02 0 0 0 .15-.137l.498-.547c.4-.438.955-.75 1.573-.924a4.293 4.293 0 0 1 .763-.142 4.56 4.56 0 0 1 1.178.039c.645.107 1.255.36 1.736.765a2.93 2.93 0 0 1 .274.262l.498.547a1.01 1.01 0 0 0 .32.236.98.98 0 0 0 .09.035c.03.011.06.022.092.03a1.026 1.026 0 0 0 .912-.233 1 1 0 0 0 .064-1.414l-.5-.549a5.41 5.41 0 0 0-.217-.224C10.917 6.509 9.437 5.989 7.967 6zM8 10a2 2 0 1 0 0 4 2 2 0 0 0 0-4z" style="fill:#2e3436;fill-opacity:1"/><path fill="none" d="M9 11h3.255v4H9z" style="opacity:.5;fill:#000;fill-opacity:0;stroke-width:4;stroke-linecap:square;stroke-linejoin:round;stroke-dashoffset:2"/></svg>