<svg xmlns="http://www.w3.org/2000/svg" width="16" height="16"><path d="M7.967 6c-1.569.012-3.126.629-4.205 1.814l-.502.547a1 1 0 0 0 .787 1.676 1.004 1.004 0 0 0 .543-.191 1.01 1.01 0 0 0 .15-.137l.498-.547c.4-.438.955-.75 1.573-.924a4.294 4.294 0 0 1 .763-.142 4.557 4.557 0 0 1 1.178.039c.645.107 1.255.36 1.736.765.048.041.095.084.14.127l.06.059a2.988 2.988 0 0 1 1.765-1.035l-.215-.237a5.41 5.41 0 0 0-.217-.224C10.917 6.509 9.437 5.989 7.967 6ZM13 9c-1.1 0-2 .9-2 2v1h-1v4h6v-4h-1v-1c0-1.1-.9-2-2-2Zm-5 1a2 2 0 0 0-1.414 3.414A1.997 1.997 0 0 0 9 13.73V11h.729A1.994 1.994 0 0 0 8 10Zm5 0c.563 0 1 .437 1 1v1h-2v-1c0-.563.437-1 1-1z" style="fill:#2e3436;fill-opacity:1"/><path fill="none" d="M9 11h3.255v4H9z" style="opacity:.5;fill:#000;fill-opacity:0;stroke-width:4;stroke-linecap:square;stroke-linejoin:round;stroke-dashoffset:2"/><path d="M8 1.992c-2.618 0-5.237.935-7.193 2.807l-.498.48A1 1 0 1 0 1.69 6.721l.5-.477c3.088-2.954 8.53-2.954 11.618 0l.5.477a1 1 0 1 0 1.382-1.442l-.498-.48C13.237 2.927 10.618 1.992 8 1.992Z" style="fill:#2e3436;fill-opacity:.34999999"/></svg>