<svg xmlns="http://www.w3.org/2000/svg" width="16" height="16"><path d="M3 6a2 2 0 0 0-2 2 2 2 0 0 0 2 2 2 2 0 0 0 2-2 2 2 0 0 0-2-2Zm5 0a2 2 0 0 0-2 2 2 2 0 0 0 2 2 2 2 0 0 0 2-2 2 2 0 0 0-2-2Zm5 0a2 2 0 0 0-2 2 2 2 0 0 0 2 2 2 2 0 0 0 2-2 2 2 0 0 0-2-2z" style="fill:#2e3436;fill-opacity:1"/><path d="M7.918 1A2.912 2.912 0 0 0 5 3.918V5h2V4c0-.554.446-1 1-1s1 .446 1 1v1h2V3.918A2.912 2.912 0 0 0 8.082 1ZM7 11v1.219a2.006 2.006 0 0 0-.756.758H2.996a1 1 0 0 0-1 1 1 1 0 0 0 1 1h3.285a2.006 2.006 0 0 0 1.715.972 2.006 2.006 0 0 0 1.719-.972h3.293a1 1 0 0 0 1-1 1 1 0 0 0-1-1h-3.26A2.006 2.006 0 0 0 9 12.223V11Zm.996 1.938a1.006 1.006 0 0 1 1.006 1.005 1.006 1.006 0 0 1-1.006 1.006 1.006 1.006 0 0 1-1.006-1.006 1.006 1.006 0 0 1 1.006-1.005Z" style="fill:#2e3436;fill-opacity:.35"/></svg>