<svg xmlns="http://www.w3.org/2000/svg" width="16" height="16"><path d="M7.918 1A2.912 2.912 0 0 0 5 3.918V5a1.016 1.016 0 0 0-1 1.031V9.97A1.031 1.031 0 0 0 5.031 11H7v1.219a2.006 2.006 0 0 0-.756.758H2.996a1 1 0 0 0-1 1 1 1 0 0 0 1 1h3.285a2.006 2.006 0 0 0 1.715.972 2.006 2.006 0 0 0 1.719-.972h3.293a1 1 0 0 0 1-1 1 1 0 0 0-1-1h-3.26A2.006 2.006 0 0 0 9 12.223V11h1.969A1.031 1.031 0 0 0 12 9.969V6.03A1.016 1.016 0 0 0 11 5V3.918A2.912 2.912 0 0 0 8.082 1h-.164zM8 3c.554 0 1 .446 1 1v1H7V4c0-.554.446-1 1-1zm-.004 9.938a1.006 1.006 0 0 1 1.006 1.005 1.006 1.006 0 0 1-1.006 1.006 1.006 1.006 0 0 1-1.006-1.006 1.006 1.006 0 0 1 1.006-1.005z" style="fill:#2e3436;fill-opacity:1"/></svg>